# xmcd
#
# Track frame offsets:
#      150
#      16653
#      30284
#      42301
#      62291
#      80025
#      98619
#      108250
#      121489
#      136152
#      149947
#      169420
#      175689
#      197191
#      210844
#      224642
#      242201
#      255286
#      273232
#      286348
#      293518
#      302138
#      309783
#      321797
#      336169
# 
# Disc length: 4707 seconds
#
# Revision: 1
# Processed by: cddbd v1.4PL0 Copyright (c) Steve Scherf et al.
#
# Submitted via: FreeRIP 1.21
#
DISCID=61126119
DTITLE=Enya - The Best 2001
DYEAR=1900
DGENRE=blues
TTITLE0=Only Time
TTITLE1=Sheperd Moons
TTITLE2=A Day Without Rain
TTITLE3=Orinoco Flow
TTITLE4=Caribbean Blue
TTITLE5=Cursum Perficio
TTITLE6=Lothlorien
TTITLE7=The Celts
TTITLE8=Once You Had Gold
TTITLE9=Fairytale
TTITLE10=Exile
TTITLE11=Bard Dance
TTITLE12=Pax Deorum
TTITLE13=Storms In Africa II
TTITLE14=Aldebaran
TTITLE15=Marble Halls
TTITLE16=The Sun In The Stream
TTITLE17=On Your Shore
TTITLE18=Book Of Days
TTITLE19=Epona
TTITLE20=Ebudae
TTITLE21=Deireadh An Tuath
TTITLE22=Tea House Moon
TTITLE23=March Of The Celts
TTITLE24=Evening Falls...
EXTD=BMG Music 2001
EXTT0=
EXTT1=
EXTT2=
EXTT3=
EXTT4=
EXTT5=
EXTT6=
EXTT7=
EXTT8=
EXTT9=
EXTT10=
EXTT11=
EXTT12=
EXTT13=
EXTT14=
EXTT15=
EXTT16=
EXTT17=
EXTT18=
EXTT19=
EXTT20=
EXTT21=
EXTT22=
EXTT23=
EXTT24=
PLAYORDER=
